<?xml version="1.0" encoding="us-ascii" standalone="no"?><svg xmlns="http://www.w3.org/2000/svg" xmlns:xlink="http://www.w3.org/1999/xlink" contentStyleType="text/css" height="235.8px" preserveAspectRatio="none" style="width:647px;height:235px;background:#FFFFFF;" version="1.1" viewBox="0 0 647 235" width="647.4px" zoomAndPan="magnify"><defs/><g><!--class Hospital--><g id="elem_Hospital"><rect codeLine="2" fill="#F1F1F1" height="95.8359" id="Hospital" rx="1.5" ry="1.5" style="stroke:#181818;stroke-width:0.3;" width="317.4" x="4.2" y="4.2"/><ellipse cx="145.35" cy="13.8" fill="#ADD1B2" rx="6.6" ry="6.6" style="stroke:#181818;stroke-width:0.6;"/><path d="M147.0094,11.325 Q147.1031,11.1938 147.2156,11.1281 Q147.3281,11.0625 147.4594,11.0625 Q147.6844,11.0625 147.825,11.2219 Q147.9656,11.3719 147.9656,11.7375 L147.9656,12.6094 Q147.9656,12.975 147.825,13.1344 Q147.6844,13.2938 147.4594,13.2938 Q147.2531,13.2938 147.1313,13.1719 Q147.0094,13.0594 146.9438,12.75 Q146.9156,12.5344 146.8031,12.4219 Q146.6063,12.1969 146.2406,12.0656 Q145.875,11.9344 145.5,11.9344 Q145.0406,11.9344 144.6563,12.1313 Q144.2813,12.3281 143.9813,12.7781 Q143.6906,13.2281 143.6906,13.8469 L143.6906,14.5031 Q143.6906,15.2437 144.225,15.7406 Q144.7594,16.2281 145.7156,16.2281 Q146.2781,16.2281 146.6719,16.0781 Q146.9063,15.9844 147.1594,15.7219 Q147.3188,15.5625 147.4031,15.5156 Q147.4969,15.4688 147.6188,15.4688 Q147.8156,15.4688 147.9656,15.6281 Q148.125,15.7781 148.125,15.9844 Q148.125,16.1906 147.9188,16.4344 Q147.6188,16.7813 147.1406,16.9781 Q146.4938,17.25 145.7156,17.25 Q144.8063,17.25 144.0844,16.875 Q143.4938,16.575 143.0812,15.9375 Q142.6688,15.2906 142.6688,14.5219 L142.6688,13.8281 Q142.6688,13.0313 143.0344,12.3469 Q143.4094,11.6531 144.0656,11.2875 Q144.7219,10.9125 145.4625,10.9125 Q145.9031,10.9125 146.2875,11.0156 Q146.6813,11.1094 147.0094,11.325 Z " fill="#000000"/><text fill="#000000" font-family="sans-serif" font-size="8.4" lengthAdjust="spacing" textLength="30" x="157.65" y="17.2781">Hospital</text><line style="stroke:#181818;stroke-width:0.3;" x1="4.8" x2="321" y1="23.4" y2="23.4"/><rect fill="none" height="3.6" style="stroke:#C82930;stroke-width:0.6;" width="3.6" x="9" y="30.4863"/><text fill="#000000" font-family="sans-serif" font-size="8.4" lengthAdjust="spacing" textLength="46.8" x="16.2" y="34.8645">name: string</text><rect fill="none" height="3.6" style="stroke:#C82930;stroke-width:0.6;" width="3.6" x="9" y="41.659"/><text fill="#000000" font-family="sans-serif" font-size="8.4" lengthAdjust="spacing" textLength="55.2" x="16.2" y="46.0371">location: string</text><rect fill="none" height="3.6" style="stroke:#C82930;stroke-width:0.6;" width="3.6" x="9" y="52.8316"/><text fill="#000000" font-family="sans-serif" font-size="8.4" lengthAdjust="spacing" textLength="76.8" x="16.2" y="57.2098">opening_time: string</text><rect fill="none" height="3.6" style="stroke:#C82930;stroke-width:0.6;" width="3.6" x="9" y="64.0043"/><text fill="#000000" font-family="sans-serif" font-size="8.4" lengthAdjust="spacing" textLength="72.6" x="16.2" y="68.3824">closing_time: string</text><line style="stroke:#181818;stroke-width:0.3;" x1="4.8" x2="321" y1="72.8906" y2="72.8906"/><ellipse cx="10.8" cy="81.777" fill="#84BE84" rx="1.8" ry="1.8" style="stroke:#038048;stroke-width:0.6;"/><text fill="#000000" font-family="sans-serif" font-size="8.4" lengthAdjust="spacing" textLength="301.8" x="16.2" y="84.3551">__init__(name: string, location: string, opening_time: string, closing_time: string)</text><ellipse cx="10.8" cy="92.9496" fill="#84BE84" rx="1.8" ry="1.8" style="stroke:#038048;stroke-width:0.6;"/><text fill="#000000" font-family="sans-serif" font-size="8.4" lengthAdjust="spacing" textLength="32.4" x="16.2" y="95.5277">display()</text></g><!--class Patient--><g id="elem_Patient"><rect codeLine="11" fill="#F1F1F1" height="95.8359" id="Patient" rx="1.5" ry="1.5" style="stroke:#181818;stroke-width:0.3;" width="283.2" x="21.3" y="136.2"/><ellipse cx="147.15" cy="145.8" fill="#ADD1B2" rx="6.6" ry="6.6" style="stroke:#181818;stroke-width:0.6;"/><path d="M148.8094,143.325 Q148.9031,143.1938 149.0156,143.1281 Q149.1281,143.0625 149.2594,143.0625 Q149.4844,143.0625 149.625,143.2219 Q149.7656,143.3719 149.7656,143.7375 L149.7656,144.6094 Q149.7656,144.975 149.625,145.1344 Q149.4844,145.2938 149.2594,145.2938 Q149.0531,145.2938 148.9313,145.1719 Q148.8094,145.0594 148.7438,144.75 Q148.7156,144.5344 148.6031,144.4219 Q148.4063,144.1969 148.0406,144.0656 Q147.675,143.9344 147.3,143.9344 Q146.8406,143.9344 146.4562,144.1313 Q146.0812,144.3281 145.7813,144.7781 Q145.4906,145.2281 145.4906,145.8469 L145.4906,146.5031 Q145.4906,147.2438 146.025,147.7406 Q146.5594,148.2281 147.5156,148.2281 Q148.0781,148.2281 148.4719,148.0781 Q148.7062,147.9844 148.9594,147.7219 Q149.1188,147.5625 149.2031,147.5156 Q149.2969,147.4688 149.4188,147.4688 Q149.6156,147.4688 149.7656,147.6281 Q149.925,147.7781 149.925,147.9844 Q149.925,148.1906 149.7188,148.4344 Q149.4188,148.7813 148.9406,148.9781 Q148.2938,149.25 147.5156,149.25 Q146.6063,149.25 145.8844,148.875 Q145.2938,148.575 144.8813,147.9375 Q144.4688,147.2906 144.4688,146.5219 L144.4688,145.8281 Q144.4688,145.0313 144.8344,144.3469 Q145.2094,143.6531 145.8656,143.2875 Q146.5219,142.9125 147.2625,142.9125 Q147.7031,142.9125 148.0875,143.0156 Q148.4813,143.1094 148.8094,143.325 Z " fill="#000000"/><text fill="#000000" font-family="sans-serif" font-size="8.4" lengthAdjust="spacing" textLength="26.4" x="159.45" y="149.2781">Patient</text><line style="stroke:#181818;stroke-width:0.3;" x1="21.9" x2="303.9" y1="155.4" y2="155.4"/><rect fill="none" height="3.6" style="stroke:#C82930;stroke-width:0.6;" width="3.6" x="26.1" y="162.4863"/><text fill="#000000" font-family="sans-serif" font-size="8.4" lengthAdjust="spacing" textLength="46.8" x="33.3" y="166.8645">name: string</text><rect fill="none" height="3.6" style="stroke:#C82930;stroke-width:0.6;" width="3.6" x="26.1" y="173.659"/><text fill="#000000" font-family="sans-serif" font-size="8.4" lengthAdjust="spacing" textLength="89.4" x="33.3" y="178.0371">doctor_specialist: string</text><rect fill="none" height="3.6" style="stroke:#C82930;stroke-width:0.6;" width="3.6" x="26.1" y="184.8316"/><text fill="#000000" font-family="sans-serif" font-size="8.4" lengthAdjust="spacing" textLength="39.6" x="33.3" y="189.2098">day: string</text><rect fill="none" height="3.6" style="stroke:#C82930;stroke-width:0.6;" width="3.6" x="26.1" y="196.0043"/><text fill="#000000" font-family="sans-serif" font-size="8.4" lengthAdjust="spacing" textLength="41.4" x="33.3" y="200.3824">time: string</text><line style="stroke:#181818;stroke-width:0.3;" x1="21.9" x2="303.9" y1="204.8906" y2="204.8906"/><ellipse cx="27.9" cy="213.777" fill="#84BE84" rx="1.8" ry="1.8" style="stroke:#038048;stroke-width:0.6;"/><text fill="#000000" font-family="sans-serif" font-size="8.4" lengthAdjust="spacing" textLength="267.6" x="33.3" y="216.3551">__init__(name: string, doctor_specialist: string, day: string, time: string)</text><ellipse cx="27.9" cy="224.9496" fill="#84BE84" rx="1.8" ry="1.8" style="stroke:#038048;stroke-width:0.6;"/><text fill="#000000" font-family="sans-serif" font-size="8.4" lengthAdjust="spacing" textLength="32.4" x="33.3" y="227.5277">display()</text></g><!--class Doctor--><g id="elem_Doctor"><rect codeLine="20" fill="#F1F1F1" height="73.4906" id="Doctor" rx="1.5" ry="1.5" style="stroke:#181818;stroke-width:0.3;" width="221.4" x="373.8" y="15.6"/><ellipse cx="469.35" cy="25.2" fill="#ADD1B2" rx="6.6" ry="6.6" style="stroke:#181818;stroke-width:0.6;"/><path d="M471.0094,22.725 Q471.1031,22.5938 471.2156,22.5281 Q471.3281,22.4625 471.4594,22.4625 Q471.6844,22.4625 471.825,22.6219 Q471.9656,22.7719 471.9656,23.1375 L471.9656,24.0094 Q471.9656,24.375 471.825,24.5344 Q471.6844,24.6937 471.4594,24.6937 Q471.2531,24.6937 471.1312,24.5719 Q471.0094,24.4594 470.9437,24.15 Q470.9156,23.9344 470.8031,23.8219 Q470.6063,23.5969 470.2406,23.4656 Q469.875,23.3344 469.5,23.3344 Q469.0406,23.3344 468.6563,23.5313 Q468.2813,23.7281 467.9813,24.1781 Q467.6906,24.6281 467.6906,25.2469 L467.6906,25.9031 Q467.6906,26.6438 468.225,27.1406 Q468.7594,27.6281 469.7156,27.6281 Q470.2781,27.6281 470.6719,27.4781 Q470.9063,27.3844 471.1594,27.1219 Q471.3187,26.9625 471.4031,26.9156 Q471.4969,26.8688 471.6188,26.8688 Q471.8156,26.8688 471.9656,27.0281 Q472.125,27.1781 472.125,27.3844 Q472.125,27.5906 471.9188,27.8344 Q471.6188,28.1813 471.1406,28.3781 Q470.4938,28.65 469.7156,28.65 Q468.8063,28.65 468.0844,28.275 Q467.4938,27.975 467.0812,27.3375 Q466.6688,26.6906 466.6688,25.9219 L466.6688,25.2281 Q466.6688,24.4313 467.0344,23.7469 Q467.4094,23.0531 468.0656,22.6875 Q468.7219,22.3125 469.4625,22.3125 Q469.9031,22.3125 470.2875,22.4156 Q470.6813,22.5094 471.0094,22.725 Z " fill="#000000"/><text fill="#000000" font-family="sans-serif" font-size="8.4" lengthAdjust="spacing" textLength="25.2" x="481.65" y="28.6781">Doctor</text><line style="stroke:#181818;stroke-width:0.3;" x1="374.4" x2="594.6" y1="34.8" y2="34.8"/><rect fill="none" height="3.6" style="stroke:#C82930;stroke-width:0.6;" width="3.6" x="378.6" y="41.8863"/><text fill="#000000" font-family="sans-serif" font-size="8.4" lengthAdjust="spacing" textLength="53.4" x="385.8" y="46.2645">id_num: string</text><rect fill="none" height="3.6" style="stroke:#C82930;stroke-width:0.6;" width="3.6" x="378.6" y="53.059"/><text fill="#000000" font-family="sans-serif" font-size="8.4" lengthAdjust="spacing" textLength="46.8" x="385.8" y="57.4371">name: string</text><rect fill="none" height="3.6" style="stroke:#C82930;stroke-width:0.6;" width="3.6" x="378.6" y="64.2316"/><text fill="#000000" font-family="sans-serif" font-size="8.4" lengthAdjust="spacing" textLength="60" x="385.8" y="68.6098">schedule: string</text><line style="stroke:#181818;stroke-width:0.3;" x1="374.4" x2="594.6" y1="73.118" y2="73.118"/><ellipse cx="380.4" cy="82.0043" fill="#84BE84" rx="1.8" ry="1.8" style="stroke:#038048;stroke-width:0.6;"/><text fill="#000000" font-family="sans-serif" font-size="8.4" lengthAdjust="spacing" textLength="205.8" x="385.8" y="84.5824">__init__(id_num: string, name: string, schedule: string)</text></g><!--class Cardiologist--><g id="elem_Cardiologist"><rect codeLine="27" fill="#F1F1F1" height="62.318" id="Cardiologist" rx="1.5" ry="1.5" style="stroke:#181818;stroke-width:0.3;" width="91.8" x="325.8" y="153"/><ellipse cx="347.22" cy="162.6" fill="#ADD1B2" rx="6.6" ry="6.6" style="stroke:#181818;stroke-width:0.6;"/><path d="M348.8794,160.125 Q348.9731,159.9938 349.0856,159.9281 Q349.1981,159.8625 349.3294,159.8625 Q349.5544,159.8625 349.695,160.0219 Q349.8356,160.1719 349.8356,160.5375 L349.8356,161.4094 Q349.8356,161.775 349.695,161.9344 Q349.5544,162.0938 349.3294,162.0938 Q349.1231,162.0938 349.0013,161.9719 Q348.8794,161.8594 348.8138,161.55 Q348.7856,161.3344 348.6731,161.2219 Q348.4763,160.9969 348.1106,160.8656 Q347.745,160.7344 347.37,160.7344 Q346.9106,160.7344 346.5263,160.9313 Q346.1513,161.1281 345.8513,161.5781 Q345.5606,162.0281 345.5606,162.6469 L345.5606,163.3031 Q345.5606,164.0438 346.095,164.5406 Q346.6294,165.0281 347.5856,165.0281 Q348.1481,165.0281 348.5419,164.8781 Q348.7763,164.7844 349.0294,164.5219 Q349.1888,164.3625 349.2731,164.3156 Q349.3669,164.2687 349.4888,164.2687 Q349.6856,164.2687 349.8356,164.4281 Q349.995,164.5781 349.995,164.7844 Q349.995,164.9906 349.7888,165.2344 Q349.4888,165.5812 349.0106,165.7781 Q348.3638,166.05 347.5856,166.05 Q346.6763,166.05 345.9544,165.675 Q345.3638,165.375 344.9513,164.7375 Q344.5388,164.0906 344.5388,163.3219 L344.5388,162.6281 Q344.5388,161.8312 344.9044,161.1469 Q345.2794,160.4531 345.9356,160.0875 Q346.5919,159.7125 347.3325,159.7125 Q347.7731,159.7125 348.1575,159.8156 Q348.5513,159.9094 348.8794,160.125 Z " fill="#000000"/><text fill="#000000" font-family="sans-serif" font-size="8.4" lengthAdjust="spacing" textLength="45" x="358.38" y="166.0781">Cardiologist</text><line style="stroke:#181818;stroke-width:0.3;" x1="326.4" x2="417" y1="172.2" y2="172.2"/><rect fill="none" height="3.6" style="stroke:#C82930;stroke-width:0.6;" width="3.6" x="330.6" y="179.2863"/><text fill="#000000" font-family="sans-serif" font-size="8.4" lengthAdjust="spacing" textLength="76.2" x="337.8" y="183.6645">specialization: string</text><line style="stroke:#181818;stroke-width:0.3;" x1="326.4" x2="417" y1="188.1727" y2="188.1727"/><ellipse cx="332.4" cy="197.059" fill="#84BE84" rx="1.8" ry="1.8" style="stroke:#038048;stroke-width:0.6;"/><text fill="#000000" font-family="sans-serif" font-size="8.4" lengthAdjust="spacing" textLength="34.8" x="337.8" y="199.6371">working()</text><ellipse cx="332.4" cy="208.2316" fill="#84BE84" rx="1.8" ry="1.8" style="stroke:#038048;stroke-width:0.6;"/><text fill="#000000" font-family="sans-serif" font-size="8.4" lengthAdjust="spacing" textLength="32.4" x="337.8" y="210.8098">display()</text></g><!--class Pediatrician--><g id="elem_Pediatrician"><rect codeLine="33" fill="#F1F1F1" height="62.318" id="Pediatrician" rx="1.5" ry="1.5" style="stroke:#181818;stroke-width:0.3;" width="91.8" x="438.6" y="153"/><ellipse cx="460.29" cy="162.6" fill="#ADD1B2" rx="6.6" ry="6.6" style="stroke:#181818;stroke-width:0.6;"/><path d="M461.9494,160.125 Q462.0431,159.9938 462.1556,159.9281 Q462.2681,159.8625 462.3994,159.8625 Q462.6244,159.8625 462.765,160.0219 Q462.9056,160.1719 462.9056,160.5375 L462.9056,161.4094 Q462.9056,161.775 462.765,161.9344 Q462.6244,162.0938 462.3994,162.0938 Q462.1931,162.0938 462.0712,161.9719 Q461.9494,161.8594 461.8837,161.55 Q461.8556,161.3344 461.7431,161.2219 Q461.5463,160.9969 461.1806,160.8656 Q460.815,160.7344 460.44,160.7344 Q459.9806,160.7344 459.5963,160.9313 Q459.2213,161.1281 458.9213,161.5781 Q458.6306,162.0281 458.6306,162.6469 L458.6306,163.3031 Q458.6306,164.0438 459.165,164.5406 Q459.6994,165.0281 460.6556,165.0281 Q461.2181,165.0281 461.6119,164.8781 Q461.8462,164.7844 462.0994,164.5219 Q462.2587,164.3625 462.3431,164.3156 Q462.4369,164.2687 462.5588,164.2687 Q462.7556,164.2687 462.9056,164.4281 Q463.065,164.5781 463.065,164.7844 Q463.065,164.9906 462.8588,165.2344 Q462.5588,165.5812 462.0806,165.7781 Q461.4338,166.05 460.6556,166.05 Q459.7463,166.05 459.0244,165.675 Q458.4338,165.375 458.0212,164.7375 Q457.6088,164.0906 457.6088,163.3219 L457.6088,162.6281 Q457.6088,161.8312 457.9744,161.1469 Q458.3494,160.4531 459.0056,160.0875 Q459.6619,159.7125 460.4025,159.7125 Q460.8431,159.7125 461.2275,159.8156 Q461.6213,159.9094 461.9494,160.125 Z " fill="#000000"/><text fill="#000000" font-family="sans-serif" font-size="8.4" lengthAdjust="spacing" textLength="44.4" x="471.51" y="166.0781">Pediatrician</text><line style="stroke:#181818;stroke-width:0.3;" x1="439.2" x2="529.8" y1="172.2" y2="172.2"/><rect fill="none" height="3.6" style="stroke:#C82930;stroke-width:0.6;" width="3.6" x="443.4" y="179.2863"/><text fill="#000000" font-family="sans-serif" font-size="8.4" lengthAdjust="spacing" textLength="76.2" x="450.6" y="183.6645">specialization: string</text><line style="stroke:#181818;stroke-width:0.3;" x1="439.2" x2="529.8" y1="188.1727" y2="188.1727"/><ellipse cx="445.2" cy="197.059" fill="#84BE84" rx="1.8" ry="1.8" style="stroke:#038048;stroke-width:0.6;"/><text fill="#000000" font-family="sans-serif" font-size="8.4" lengthAdjust="spacing" textLength="34.8" x="450.6" y="199.6371">working()</text><ellipse cx="445.2" cy="208.2316" fill="#84BE84" rx="1.8" ry="1.8" style="stroke:#038048;stroke-width:0.6;"/><text fill="#000000" font-family="sans-serif" font-size="8.4" lengthAdjust="spacing" textLength="32.4" x="450.6" y="210.8098">display()</text></g><!--class Neurologist--><g id="elem_Neurologist"><rect codeLine="39" fill="#F1F1F1" height="62.318" id="Neurologist" rx="1.5" ry="1.5" style="stroke:#181818;stroke-width:0.3;" width="91.8" x="551.4" y="153"/><ellipse cx="573.9" cy="162.6" fill="#ADD1B2" rx="6.6" ry="6.6" style="stroke:#181818;stroke-width:0.6;"/><path d="M575.5594,160.125 Q575.6531,159.9938 575.7656,159.9281 Q575.8781,159.8625 576.0094,159.8625 Q576.2344,159.8625 576.375,160.0219 Q576.5156,160.1719 576.5156,160.5375 L576.5156,161.4094 Q576.5156,161.775 576.375,161.9344 Q576.2344,162.0938 576.0094,162.0938 Q575.8031,162.0938 575.6813,161.9719 Q575.5594,161.8594 575.4938,161.55 Q575.4656,161.3344 575.3531,161.2219 Q575.1563,160.9969 574.7906,160.8656 Q574.425,160.7344 574.05,160.7344 Q573.5906,160.7344 573.2063,160.9313 Q572.8313,161.1281 572.5313,161.5781 Q572.2406,162.0281 572.2406,162.6469 L572.2406,163.3031 Q572.2406,164.0438 572.775,164.5406 Q573.3094,165.0281 574.2656,165.0281 Q574.8281,165.0281 575.2219,164.8781 Q575.4563,164.7844 575.7094,164.5219 Q575.8688,164.3625 575.9531,164.3156 Q576.0469,164.2687 576.1687,164.2687 Q576.3656,164.2687 576.5156,164.4281 Q576.675,164.5781 576.675,164.7844 Q576.675,164.9906 576.4688,165.2344 Q576.1687,165.5812 575.6906,165.7781 Q575.0437,166.05 574.2656,166.05 Q573.3562,166.05 572.6344,165.675 Q572.0437,165.375 571.6313,164.7375 Q571.2188,164.0906 571.2188,163.3219 L571.2188,162.6281 Q571.2188,161.8312 571.5844,161.1469 Q571.9594,160.4531 572.6156,160.0875 Q573.2719,159.7125 574.0125,159.7125 Q574.4531,159.7125 574.8375,159.8156 Q575.2312,159.9094 575.5594,160.125 Z " fill="#000000"/><text fill="#000000" font-family="sans-serif" font-size="8.4" lengthAdjust="spacing" textLength="42.6" x="585.3" y="166.0781">Neurologist</text><line style="stroke:#181818;stroke-width:0.3;" x1="552" x2="642.6" y1="172.2" y2="172.2"/><rect fill="none" height="3.6" style="stroke:#C82930;stroke-width:0.6;" width="3.6" x="556.2" y="179.2863"/><text fill="#000000" font-family="sans-serif" font-size="8.4" lengthAdjust="spacing" textLength="76.2" x="563.4" y="183.6645">specialization: string</text><line style="stroke:#181818;stroke-width:0.3;" x1="552" x2="642.6" y1="188.1727" y2="188.1727"/><ellipse cx="558" cy="197.059" fill="#84BE84" rx="1.8" ry="1.8" style="stroke:#038048;stroke-width:0.6;"/><text fill="#000000" font-family="sans-serif" font-size="8.4" lengthAdjust="spacing" textLength="34.8" x="563.4" y="199.6371">working()</text><ellipse cx="558" cy="208.2316" fill="#84BE84" rx="1.8" ry="1.8" style="stroke:#038048;stroke-width:0.6;"/><text fill="#000000" font-family="sans-serif" font-size="8.4" lengthAdjust="spacing" textLength="32.4" x="563.4" y="210.8098">display()</text></g><!--reverse link Doctor to Cardiologist--><g id="link_Doctor_Cardiologist"><path d="M438.318,97.872 C422.022,116.046 404.58,136.548 391.536,152.946 " fill="none" id="Doctor-backto-Cardiologist" style="stroke:#181818;stroke-width:0.6;"/><polygon fill="none" points="435.288,94.962,446.454,88.89,441.516,100.602,435.288,94.962" style="stroke:#181818;stroke-width:0.6;"/></g><!--link Cardiologist to Doctor--><g id="link_Cardiologist_Doctor"><path codeLine="47" d="M405.12,152.946 C420.282,136.698 438.03,116.424 452.964,98.37 " fill="none" id="Cardiologist-to-Doctor" style="stroke:#181818;stroke-width:0.6;"/><polygon fill="none" points="449.862,95.526,460.704,88.89,456.366,100.836,449.862,95.526" style="stroke:#181818;stroke-width:0.6;"/></g><!--reverse link Doctor to Pediatrician--><g id="link_Doctor_Pediatrician"><path d="M477.096,100.878 C476.592,118.284 476.862,137.448 477.906,152.946 " fill="none" id="Doctor-backto-Pediatrician" style="stroke:#181818;stroke-width:0.6;"/><polygon fill="none" points="472.896,100.71,477.576,88.89,481.29,101.046,472.896,100.71" style="stroke:#181818;stroke-width:0.6;"/></g><!--link Pediatrician to Doctor--><g id="link_Pediatrician_Doctor"><path codeLine="48" d="M491.484,152.946 C492.588,137.448 492.87,118.284 492.342,100.878 " fill="none" id="Pediatrician-to-Doctor" style="stroke:#181818;stroke-width:0.6;"/><polygon fill="none" points="488.148,101.058,491.826,88.89,496.536,100.698,488.148,101.058" style="stroke:#181818;stroke-width:0.6;"/></g><!--reverse link Doctor to Neurologist--><g id="link_Doctor_Neurologist"><path d="M516.468,98.37 C531.438,116.424 549.168,136.698 564.27,152.946 " fill="none" id="Doctor-backto-Neurologist" style="stroke:#181818;stroke-width:0.6;"/><polygon fill="none" points="513.06,100.83,508.698,88.89,519.552,95.508,513.06,100.83" style="stroke:#181818;stroke-width:0.6;"/></g><!--link Neurologist to Doctor--><g id="link_Neurologist_Doctor"><path codeLine="49" d="M577.848,152.946 C564.876,136.548 547.446,116.046 531.108,97.872 " fill="none" id="Neurologist-to-Doctor" style="stroke:#181818;stroke-width:0.6;"/><polygon fill="none" points="527.91,100.596,522.948,88.89,534.126,94.944,527.91,100.596" style="stroke:#181818;stroke-width:0.6;"/></g><!--link Hospital to Patient--><g id="link_Hospital_Patient"><path codeLine="45" d="M162.9,100.206 C162.9,109.254 162.9,118.8 162.9,128.076 " fill="none" id="Hospital-to-Patient" style="stroke:#181818;stroke-width:0.6;"/><polygon fill="#181818" points="162.9,136.134,165.3,132.534,162.9,128.934,160.5,132.534,162.9,136.134" style="stroke:#181818;stroke-width:0.6;"/></g><!--link Doctor to Patient--><g id="link_Doctor_Patient"><path codeLine="46" d="M395.982,88.8 C362.256,102.522 323.166,118.416 286.752,133.23 " fill="none" id="Doctor-to-Patient" style="stroke:#181818;stroke-width:0.6;"/><polygon fill="#181818" points="279.504,136.176,283.7431,137.0423,286.1731,133.4625,281.934,132.5962,279.504,136.176" style="stroke:#181818;stroke-width:0.6;"/></g><!--SRC=[jPEnRiCW48Ptdk969u4NoD0b7JfLVGE40AMd4iu2h3Pj-kv5IPm0iQiiySQT-Ux_CDPEnGWl57jCoi4FW_m8htPs3J45zDjJnP5M2SdNLUgjpmkPi7rVEugJdPMKw359sPL3EBG3E4p1EKo15oUomTWxjUyMx9SnVHHxoqphqxoN8PqeoDXRZSfXJ4rRxUl2tJwpuDowGZdSv_5yf8qQQAGVTdMmMxMetwqPt5pS6iAXZjzkBh9iL318ZhPP2knNijwq0KVhxzixi_gay94NtJyVpHfKUKT6-8SCUBL3U8p0vKSIOZbUFdP6bwNg38KuF9tdiygzR9IPo_eV]--></g></svg>